<svg width="139" height="139" viewBox="0 0 139 139" fill="none" xmlns="http://www.w3.org/2000/svg">
<g filter="url(#filter0_f_142_932)">
<circle cx="69.5" cy="69.5" r="39.5" fill="#2F1EDB" fill-opacity="0.55"/>
</g>
<circle cx="69" cy="70" r="34" stroke="white" stroke-width="2"/>
<path d="M103 69.5C103 70.4649 102.344 71.5849 100.671 72.7714C99.0242 73.9395 96.5763 75.0323 93.4614 75.9668C87.2444 77.8319 78.5957 79 69 79C59.4043 79 50.7556 77.8319 44.5386 75.9668C41.4237 75.0323 38.9758 73.9395 37.329 72.7714C35.6562 71.5849 35 70.4649 35 69.5C35 68.5351 35.6562 67.4151 37.329 66.2286C38.9758 65.0605 41.4237 63.9677 44.5386 63.0332C50.7556 61.1681 59.4043 60 69 60C78.5957 60 87.2444 61.1681 93.4614 63.0332C96.5763 63.9677 99.0242 65.0605 100.671 66.2286C102.344 67.4151 103 68.5351 103 69.5Z" stroke="white" stroke-width="2"/>
<path d="M69.5 104C68.5351 104 67.4151 103.344 66.2286 101.671C65.0605 100.024 63.9677 97.5763 63.0332 94.4614C61.1681 88.2444 60 79.5957 60 70C60 60.4043 61.1681 51.7556 63.0332 45.5386C63.9677 42.4237 65.0605 39.9758 66.2286 38.329C67.4151 36.6562 68.5351 36 69.5 36C70.4649 36 71.5849 36.6562 72.7714 38.329C73.9395 39.9758 75.0323 42.4237 75.9668 45.5386C77.8319 51.7556 79 60.4043 79 70C79 79.5957 77.8319 88.2444 75.9668 94.4614C75.0323 97.5763 73.9395 100.024 72.7714 101.671C71.5849 103.344 70.4649 104 69.5 104Z" stroke="white" stroke-width="2"/>
<defs>
<filter id="filter0_f_142_932" x="0" y="0" width="139" height="139" filterUnits="userSpaceOnUse" color-interpolation-filters="sRGB">
<feFlood flood-opacity="0" result="BackgroundImageFix"/>
<feBlend mode="normal" in="SourceGraphic" in2="BackgroundImageFix" result="shape"/>
<feGaussianBlur stdDeviation="15" result="effect1_foregroundBlur_142_932"/>
</filter>
</defs>
</svg>
