<svg width="139" height="139" viewBox="0 0 139 139" fill="none" xmlns="http://www.w3.org/2000/svg">
<g filter="url(#filter0_f_142_938)">
<circle cx="69.5" cy="69.5" r="39.5" fill="#2F1EDB" fill-opacity="0.55"/>
</g>
<g filter="url(#filter1_d_142_938)">
<circle cx="70" cy="70" r="34" stroke="white" stroke-width="2"/>
<path d="M62.0009 77.5499C64.0064 79.6742 66.8488 81 70.0009 81C73.153 81 75.9954 79.6742 78.0009 77.5499M62.0009 77.5499C60.1411 75.5799 59.0009 72.9231 59.0009 70C59.0009 66.8479 60.3267 64.0055 62.451 62M62.0009 77.5499L46.0508 93.5M77.5 61.5L93.5 45.5M62.451 62C64.421 60.1402 67.0778 59 70.0009 59C76.076 59 81.0009 63.9249 81.0009 70C81.0009 72.9231 79.8608 75.5799 78.0009 77.5499M62.451 62L46.451 46M78.0009 77.5499L93.951 93.5" stroke="white" stroke-width="2"/>
<path d="M35.5 69L39.7507 71.8338C41.6779 73.1186 44.2206 72.9828 46 71.5V71.5L49 69V69C51.6986 66.9011 55.4253 66.7252 58.3096 68.5607L59 69" stroke="white" stroke-width="2"/>
<path d="M71 35L68.1662 39.2507C66.8814 41.1779 67.0172 43.7206 68.5 45.5V45.5L71 48.5V48.5C73.0989 51.1986 73.2748 54.9253 71.4393 57.8096L71 58.5" stroke="white" stroke-width="2"/>
<path d="M69.5 104.5L72.3338 100.249C73.6186 98.3221 73.4828 95.7794 72 94V94L69.5 91V91C67.4011 88.3014 67.2252 84.5747 69.0607 81.6904L69.5 81" stroke="white" stroke-width="2"/>
<path d="M104.5 69L100.249 66.1662C98.3221 64.8814 95.7794 65.0172 94 66.5V66.5L91 69V69C88.3014 71.0989 84.5747 71.2748 81.6904 69.4393L81 69" stroke="white" stroke-width="2"/>
<circle cx="70" cy="70" r="4" stroke="white" stroke-width="2"/>
<rect x="35" y="35" width="69" height="69" stroke="white" stroke-width="2"/>
<circle cx="39.5" cy="99.5" r="1.5" fill="white"/>
<circle cx="99.5" cy="99.5" r="1.5" fill="white"/>
<circle cx="99.5" cy="39.5" r="1.5" fill="white"/>
<circle cx="39.5" cy="39.5" r="1.5" fill="white"/>
</g>
<defs>
<filter id="filter0_f_142_938" x="0" y="0" width="139" height="139" filterUnits="userSpaceOnUse" color-interpolation-filters="sRGB">
<feFlood flood-opacity="0" result="BackgroundImageFix"/>
<feBlend mode="normal" in="SourceGraphic" in2="BackgroundImageFix" result="shape"/>
<feGaussianBlur stdDeviation="15" result="effect1_foregroundBlur_142_938"/>
</filter>
<filter id="filter1_d_142_938" x="30" y="34" width="79.0547" height="79.0547" filterUnits="userSpaceOnUse" color-interpolation-filters="sRGB">
<feFlood flood-opacity="0" result="BackgroundImageFix"/>
<feColorMatrix in="SourceAlpha" type="matrix" values="0 0 0 0 0 0 0 0 0 0 0 0 0 0 0 0 0 0 127 0" result="hardAlpha"/>
<feOffset dy="4"/>
<feGaussianBlur stdDeviation="2"/>
<feComposite in2="hardAlpha" operator="out"/>
<feColorMatrix type="matrix" values="0 0 0 0 0 0 0 0 0 0 0 0 0 0 0 0 0 0 0.25 0"/>
<feBlend mode="normal" in2="BackgroundImageFix" result="effect1_dropShadow_142_938"/>
<feBlend mode="normal" in="SourceGraphic" in2="effect1_dropShadow_142_938" result="shape"/>
</filter>
</defs>
</svg>
