<svg width="120" height="120" viewBox="0 0 120 120" fill="none" xmlns="http://www.w3.org/2000/svg">
<rect width="120" height="120" fill="#020202"/>
<path d="M102 68.9802C102 52.2431 101.982 35.6487 101.982 20C93.3828 20.0178 84.4411 20 75.3733 20C75.3733 29.0109 75.3733 38.0932 75.3733 47.6395C75.3733 51.8684 75.3913 56.4006 75.3913 60.6652L101.91 75.493C94.825 75.493 82.7105 75.5109 75.3913 75.5109C67.2609 75.5109 71.4613 75.5109 63.3849 75.5287C56.6967 75.5287 50.0806 75.5287 43.6448 75.5287C43.6267 60.2369 43.6267 44.5169 43.6267 29.6354C43.6267 26.263 43.6267 23.2653 43.6267 20C34.3065 20.0178 25.3468 20 17 20C17 37.2724 17.018 63.1989 17.018 81.7561L49.1792 99.9921H75.4093C75.8059 100.01 76.2025 99.9921 76.5992 99.9921C88.8579 99.9921 99.1156 91.338 101.694 79.9896C101.82 79.4721 101.91 78.9547 102 78.4194C102 77.8662 102 76.0462 102 75.4752C102 73.334 102 71.1571 102 68.9802Z" fill="white"/>
</svg>
