<svg width="139" height="39" viewBox="0 0 139 39" fill="none" xmlns="http://www.w3.org/2000/svg">
<g clip-path="url(#clip0_142_821)">
<path d="M129.861 0H129.83C129.83 1.13178 129.83 2.45528 129.83 3.62417C129.83 8.78211 129.824 14.2307 129.824 19.5309C127.619 19.5309 125.353 19.5309 123.062 19.5309C120.296 19.5309 121.735 19.5247 118.95 19.5247C116.443 19.5247 112.293 19.5186 109.866 19.5186L109.891 19.5062H109.866L118.987 14.1009C118.987 12.6908 118.987 11.2745 118.993 9.8706C118.993 6.55566 118.993 3.1294 118.999 0.00618459C115.893 0.00618459 112.793 0.0123692 109.848 0.00618459C109.848 5.42388 109.842 11.46 109.842 17.2674C109.842 18.0219 109.842 18.7702 109.842 19.5247C109.842 19.7165 109.842 19.9144 109.842 20.1061C109.872 20.2916 109.903 20.471 109.947 20.6503C110.83 24.5837 114.516 27.7564 118.715 27.7564C118.851 27.7564 118.987 27.7626 119.123 27.7564H129.873V38.9876H139.012V0H129.861Z" fill="#797979"/>
<path d="M104.34 0H83.0913V8.44814H89.2046V27.8121H98.2201V8.44814H104.34V0Z" fill="#797979"/>
<path d="M29.1153 16.9767C29.1153 11.1755 29.1091 5.42388 29.1091 0C26.1636 0.00618459 23.1008 0 19.9948 0C19.9948 3.12322 19.9948 6.27117 19.9948 9.57992C19.9948 11.0457 20.0009 12.6166 20.0009 14.0947L29.0844 19.2341C26.6576 19.2341 22.508 19.2402 20.0009 19.2402C17.216 19.2402 18.6548 19.2402 15.8884 19.2464C13.5974 19.2464 11.3312 19.2464 9.1267 19.2464C9.12052 13.9462 9.12052 8.49762 9.12052 3.33968C9.12052 2.17079 9.12052 1.13178 9.12052 0C5.92803 0.00618459 2.85904 0 0 0C0 5.98668 0.00617503 14.9729 0.00617503 21.4049L11.0224 27.7255H20.0071C20.143 27.7317 20.2788 27.7255 20.4147 27.7255C24.6137 27.7255 28.1273 24.726 29.0103 20.7926C29.0535 20.6132 29.0844 20.4339 29.1153 20.2483C29.1153 20.0566 29.1153 19.4258 29.1153 19.2279C29.1153 18.4857 29.1153 17.7312 29.1153 16.9767Z" fill="#797979"/>
<path d="M34.4937 7.69361C34.4566 8.04613 34.4381 8.39865 34.4381 8.75117C34.4381 9.35726 34.4381 9.96335 34.4381 10.5756C34.4443 16.3768 34.4443 22.3944 34.4443 27.8121H34.469H43.7007V8.44813C46.535 8.44813 52.1358 8.44813 54.3032 8.44813C54.3094 13.7483 54.3094 19.0485 54.3094 24.2126C54.3094 25.3815 54.3094 26.6803 54.3094 27.8121C57.4957 27.8121 60.6882 27.8121 63.5472 27.8121C63.5472 21.646 63.5534 14.7873 63.5472 8.30588C63.5472 8.28114 63.5472 8.2564 63.5472 8.23167C63.5472 3.83443 59.9842 0.00616667 55.5938 0.00616667H43.5525C43.4166 -1.79124e-05 43.2808 0.00616667 43.1449 0.00616667C39.1188 0.00616667 35.7287 2.98714 34.6728 6.71026C34.5801 7.02567 34.5307 7.35346 34.4999 7.68742C34.4999 7.68742 34.4999 7.69361 34.4937 7.69361Z" fill="#797979"/>
<path d="M68.9434 0H77.9342V8.44196C75.2542 8.44814 71.5677 8.44196 68.9742 8.44196L77.9342 13.5442C77.9342 15.0162 77.9342 16.6242 77.9342 18.0961C77.9342 21.411 77.9342 24.6889 77.9342 27.8059C74.612 27.8121 72.0988 27.8059 68.9557 27.8059C68.9557 22.3882 68.9495 16.5005 68.9495 10.6993C68.9495 9.94481 68.9495 9.19648 68.9495 8.44196C68.9495 8.25024 68.9495 8.05233 68.9495 7.86061V0H68.9434Z" fill="#797979"/>
<path d="M79.1454 32.5557L82.5293 39H81.4487L80.6892 37.5714H76.1073L75.3539 39H74.2733L77.6572 32.5557H79.1454ZM80.2693 36.7055L78.5217 33.3287H78.2747L76.5272 36.7055H80.2693Z" fill="#797979"/>
<path d="M84.1224 32.5557H89.8899C90.4333 32.5557 90.8532 32.7412 91.1496 33.1185C91.446 33.4895 91.5881 33.9905 91.5881 34.6089C91.5881 35.1408 91.5016 35.5428 91.3349 35.8026C91.2176 35.9881 91.0261 36.1427 90.7606 36.254C90.9952 36.3468 91.1743 36.4705 91.304 36.6251C91.4893 36.8416 91.5881 37.1013 91.5881 37.4167V39H90.6309V37.4106C90.6309 37.1941 90.5259 37.0209 90.3283 36.8787C90.1246 36.7364 89.8776 36.6684 89.5935 36.6684H85.0857V39H84.1286V32.5557H84.1224ZM85.0796 35.8026H89.4947C89.8467 35.8026 90.0999 35.7407 90.2604 35.6232C90.5074 35.4377 90.6247 35.1037 90.6247 34.6151C90.6247 34.1265 90.5074 33.7926 90.2666 33.6132C90.0999 33.4895 89.8405 33.4277 89.4885 33.4277H85.0734V35.8026H85.0796Z" fill="#797979"/>
<path d="M93.8049 32.5557H99.9614V33.4215H94.7682V35.3016H99.7824V36.1675H94.7682V38.1342H99.9614V39H93.8049V32.5557Z" fill="#797979"/>
<path d="M102.326 32.5557H103.728L109.242 38.2022V32.5557H110.2V39H108.755L103.284 33.403V39H102.326V32.5557Z" fill="#797979"/>
<path d="M117.048 32.5557L120.432 39H119.351L118.592 37.5714H114.01L113.256 39H112.176L115.56 32.5557H117.048ZM118.178 36.7055L116.43 33.3287H116.189L114.442 36.7055H118.178Z" fill="#797979"/>
</g>
<defs>
<clipPath id="clip0_142_821">
<rect width="139" height="39" fill="white"/>
</clipPath>
</defs>
</svg>
