<svg width="162" height="45" viewBox="0 0 162 45" fill="none" xmlns="http://www.w3.org/2000/svg">
<g clip-path="url(#clip0_142_801)">
<path d="M151.349 0H151.313C151.313 1.3059 151.313 2.83302 151.313 4.18173C151.313 10.1332 151.306 16.4201 151.306 22.5357C148.736 22.5357 146.095 22.5357 143.425 22.5357C140.201 22.5357 141.878 22.5285 138.632 22.5285C135.71 22.5285 130.874 22.5214 128.046 22.5214L128.074 22.5071H128.046L138.675 16.2702C138.675 14.6432 138.675 13.009 138.682 11.3892C138.682 7.56422 138.682 3.61085 138.69 0.00713606C135.07 0.00713606 131.457 0.0142721 128.024 0.00713606C128.024 6.25833 128.017 13.2231 128.017 19.9239C128.017 20.7945 128.017 21.6579 128.017 22.5285C128.017 22.7498 128.017 22.9781 128.017 23.1993C128.053 23.4134 128.089 23.6204 128.139 23.8273C129.168 28.3658 133.465 32.0266 138.359 32.0266C138.517 32.0266 138.675 32.0338 138.834 32.0266H151.363V44.9857H162.014V0H151.349Z" fill="white"/>
<path d="M121.604 0H96.8402V9.74786H103.965V32.0909H114.472V9.74786H121.604V0Z" fill="white"/>
<path d="M33.9329 19.5885C33.9329 12.8949 33.9257 6.25833 33.9257 0C30.4928 0.00713606 26.9232 0 23.3032 0C23.3032 3.60371 23.3032 7.23597 23.3032 11.0538C23.3032 12.745 23.3104 14.5576 23.3104 16.2631L33.8969 22.1931C31.0686 22.1931 26.2323 22.2003 23.3104 22.2003C20.0647 22.2003 21.7415 22.2003 18.5174 22.2074C15.8474 22.2074 13.2061 22.2074 10.6369 22.2074C10.6297 16.0918 10.6297 9.80495 10.6297 3.85347C10.6297 2.50476 10.6297 1.3059 10.6297 0C6.90893 0.00713606 3.33212 0 0 0C0 6.90771 0.0071968 17.2764 0.0071968 24.6979L12.8463 31.991H23.3176C23.476 31.9981 23.6343 31.991 23.7926 31.991C28.6865 31.991 32.7814 28.53 33.8106 23.9914C33.861 23.7845 33.8969 23.5775 33.9329 23.3635C33.9329 23.1422 33.9329 22.4144 33.9329 22.186C33.9329 21.3297 33.9329 20.4591 33.9329 19.5885Z" fill="white"/>
<path d="M40.2014 8.8772C40.1582 9.28396 40.1366 9.69071 40.1366 10.0975C40.1366 10.7968 40.1366 11.4961 40.1366 12.2026C40.1438 18.8962 40.1438 25.8396 40.1438 32.0908H40.1726H50.9318V9.7478C54.2351 9.7478 60.7626 9.7478 63.2887 9.7478C63.2959 15.8634 63.2959 21.979 63.2959 27.9376C63.2959 29.2863 63.2959 30.7849 63.2959 32.0908C67.0095 32.0908 70.7302 32.0908 74.0623 32.0908C74.0623 24.9762 74.0695 17.0623 74.0623 9.58367C74.0623 9.55513 74.0623 9.52658 74.0623 9.49804C74.0623 4.4243 69.9098 0.00707783 64.7928 0.00707783H50.7591C50.6007 -5.82277e-05 50.4424 0.00707783 50.2841 0.00707783C45.5918 0.00707783 41.6407 3.44666 40.4101 7.74257C40.3021 8.10651 40.2445 8.48472 40.2086 8.87007C40.2086 8.87007 40.2086 8.8772 40.2014 8.8772Z" fill="white"/>
<path d="M80.3523 0H90.8308V9.74072C87.7074 9.74786 83.4109 9.74072 80.3883 9.74072L90.8308 15.628C90.8308 17.3264 90.8308 19.1817 90.8308 20.8801C90.8308 24.705 90.8308 28.4872 90.8308 32.0837C86.959 32.0909 84.0299 32.0837 80.3667 32.0837C80.3667 25.8325 80.3595 19.039 80.3595 12.3454C80.3595 11.4748 80.3595 10.6113 80.3595 9.74072C80.3595 9.5195 80.3595 9.29115 80.3595 9.06993V0H80.3523Z" fill="white"/>
<path d="M92.2414 37.5642L96.1852 45H94.9258L94.0406 43.3516H88.7006L87.8226 45H86.5631L90.507 37.5642H92.2414ZM93.5512 42.3525L91.5145 38.4562H91.2266L89.1899 42.3525H93.5512Z" fill="white"/>
<path d="M98.042 37.5642H104.764C105.397 37.5642 105.887 37.7783 106.232 38.2136C106.577 38.6418 106.743 39.2198 106.743 39.9334C106.743 40.5471 106.642 41.0109 106.448 41.3106C106.311 41.5247 106.088 41.7031 105.779 41.8316C106.052 41.9386 106.261 42.0813 106.412 42.2597C106.628 42.5095 106.743 42.8092 106.743 43.1732V45H105.627V43.166C105.627 42.9163 105.505 42.7164 105.275 42.5523C105.037 42.3882 104.749 42.3097 104.418 42.3097H99.1647V45H98.0492V37.5642H98.042ZM99.1575 41.3106H104.303C104.713 41.3106 105.008 41.2393 105.196 41.1037C105.483 40.8896 105.62 40.5043 105.62 39.9405C105.62 39.3768 105.483 38.9914 105.203 38.7845C105.008 38.6418 104.706 38.5704 104.296 38.5704H99.1503V41.3106H99.1575Z" fill="white"/>
<path d="M109.327 37.5642H116.502V38.5633H110.449V40.7326H116.293V41.7317H110.449V44.0009H116.502V45H109.327V37.5642Z" fill="white"/>
<path d="M119.258 37.5642H120.892L127.319 44.0794V37.5642H128.434V45H126.75L120.374 38.5418V45H119.258V37.5642Z" fill="white"/>
<path d="M136.415 37.5642L140.359 45H139.1L138.215 43.3516H132.875L131.997 45H130.737L134.681 37.5642H136.415ZM137.732 42.3525L135.696 38.4562H135.415L133.378 42.3525H137.732Z" fill="white"/>
</g>
<defs>
<clipPath id="clip0_142_801">
<rect width="162" height="45" fill="white"/>
</clipPath>
</defs>
</svg>
