<svg width="89" height="25" viewBox="0 0 89 25" fill="none" xmlns="http://www.w3.org/2000/svg">
<g clip-path="url(#clip0_169_342)">
<path d="M83.1484 0H83.1286C83.1286 0.7255 83.1286 1.5739 83.1286 2.32318C83.1286 5.62956 83.1247 9.12226 83.1247 12.5198C81.7132 12.5198 80.2621 12.5198 78.7953 12.5198C77.024 12.5198 77.9452 12.5159 76.1621 12.5159C74.5568 12.5159 71.8999 12.5119 70.346 12.5119L70.3618 12.504H70.346L76.1858 9.03901C76.1858 8.13511 76.1858 7.22724 76.1897 6.32731C76.1897 4.20235 76.1897 2.00603 76.1937 0.00396448C74.2049 0.00396448 72.2201 0.00792896 70.3342 0.00396448C70.3342 3.47685 70.3302 7.34618 70.3302 11.0688C70.3302 11.5525 70.3302 12.0322 70.3302 12.5159C70.3302 12.6388 70.3302 12.7656 70.3302 12.8885C70.35 13.0075 70.3697 13.1224 70.3974 13.2374C70.9628 15.7588 73.3232 17.7926 76.0118 17.7926C76.0988 17.7926 76.1858 17.7965 76.2728 17.7926H83.1563V24.9921H89.0079V0H83.1484Z" fill="white"/>
<path d="M66.8074 0H53.2023V5.41548H57.1166V17.8283H62.8891V5.41548H66.8074V0Z" fill="white"/>
<path d="M18.6422 10.8825C18.6422 7.16381 18.6382 3.47685 18.6382 0C16.7522 0.00396448 14.7912 0 12.8024 0C12.8024 2.00206 12.8024 4.01998 12.8024 6.14098C12.8024 7.08056 12.8064 8.08754 12.8064 9.03505L18.6224 12.3295C17.0685 12.3295 14.4116 12.3335 12.8064 12.3335C11.0232 12.3335 11.9444 12.3335 10.1731 12.3375C8.70626 12.3375 7.25522 12.3375 5.84371 12.3375C5.83976 8.9399 5.83976 5.44719 5.83976 2.14082C5.83976 1.39153 5.83976 0.7255 5.83976 0C3.79565 0.00396448 1.83061 0 0 0C0 3.83762 0.0039538 9.598 0.0039538 13.7211L7.05753 17.7728H12.8103C12.8973 17.7767 12.9843 17.7728 13.0713 17.7728C15.7598 17.7728 18.0096 15.85 18.5749 13.3286C18.6026 13.2136 18.6224 13.0986 18.6422 12.9797C18.6422 12.8568 18.6422 12.4524 18.6422 12.3256C18.6422 11.8498 18.6422 11.3662 18.6422 10.8825Z" fill="white"/>
<path d="M22.0859 4.93181C22.0622 5.15778 22.0504 5.38376 22.0504 5.60973C22.0504 5.99825 22.0504 6.38677 22.0504 6.77925C22.0543 10.4979 22.0543 14.3554 22.0543 17.8283H22.0701H27.981V5.41547C29.7958 5.41547 33.3819 5.41547 34.7697 5.41547C34.7737 8.81303 34.7737 12.2106 34.7737 15.5209C34.7737 16.2702 34.7737 17.1028 34.7737 17.8283C36.8138 17.8283 38.858 17.8283 40.6886 17.8283C40.6886 13.8757 40.6925 9.47906 40.6886 5.32429C40.6886 5.30843 40.6886 5.29257 40.6886 5.27672C40.6886 2.45797 38.4072 0.00395926 35.5961 0.00395926H27.8862C27.7992 -5.22216e-06 27.7122 0.00395926 27.6252 0.00395926C25.0473 0.00395926 22.8767 1.91484 22.2006 4.30145C22.1413 4.50364 22.1097 4.71376 22.0899 4.92784C22.0899 4.92784 22.0899 4.93181 22.0859 4.93181Z" fill="white"/>
<path d="M44.1442 0H49.9009V5.41151C48.1849 5.41548 45.8245 5.41151 44.1639 5.41151L49.9009 8.68221C49.9009 9.62575 49.9009 10.6565 49.9009 11.6001C49.9009 13.725 49.9009 15.8262 49.9009 17.8243C47.7738 17.8283 46.1646 17.8243 44.1521 17.8243C44.1521 14.3514 44.1481 10.5772 44.1481 6.85855C44.1481 6.37488 44.1481 5.89518 44.1481 5.41151C44.1481 5.28861 44.1481 5.16175 44.1481 5.03885V0H44.1442Z" fill="white"/>
<path d="M50.6758 20.8689L52.8425 24.9999H52.1506L51.6643 24.0841H48.7306L48.2482 24.9999H47.5563L49.723 20.8689H50.6758ZM51.3954 23.5291L50.2765 21.3645H50.1183L48.9994 23.5291H51.3954Z" fill="white"/>
<path d="M53.8626 20.8689H57.5555C57.9034 20.8689 58.1723 20.9878 58.362 21.2297C58.5518 21.4675 58.6428 21.7887 58.6428 22.1851C58.6428 22.526 58.5874 22.7837 58.4806 22.9502C58.4055 23.0692 58.283 23.1683 58.1129 23.2397C58.2632 23.2991 58.3778 23.3784 58.4609 23.4775C58.5795 23.6163 58.6428 23.7828 58.6428 23.985V24.9999H58.0299V23.981C58.0299 23.8423 57.9627 23.7313 57.8362 23.6401C57.7057 23.5489 57.5475 23.5053 57.3657 23.5053H54.4794V24.9999H53.8666V20.8689H53.8626ZM54.4754 22.9502H57.3024C57.5278 22.9502 57.6899 22.9106 57.7927 22.8353C57.9508 22.7163 58.026 22.5023 58.026 22.1891C58.026 21.8759 57.9508 21.6618 57.7966 21.5468C57.6899 21.4675 57.5238 21.4279 57.2985 21.4279H54.4715V22.9502H54.4754Z" fill="white"/>
<path d="M60.0621 20.8689H64.0041V21.4239H60.6789V22.6291H63.8894V23.1842H60.6789V24.4449H64.0041V24.9999H60.0621V20.8689Z" fill="white"/>
<path d="M65.5184 20.8689H66.4159L69.9466 24.4885V20.8689H70.5595V24.9999H69.6343L66.1312 21.412V24.9999H65.5184V20.8689Z" fill="white"/>
<path d="M74.9443 20.8689L77.1109 24.9999H76.419L75.9327 24.0841H72.999L72.5166 24.9999H71.8247L73.9914 20.8689H74.9443ZM75.6678 23.5291L74.5489 21.3645H74.3947L73.2758 23.5291H75.6678Z" fill="white"/>
</g>
<defs>
<clipPath id="clip0_169_342">
<rect width="89" height="25" fill="white"/>
</clipPath>
</defs>
</svg>
