<svg width="27" height="27" viewBox="0 0 27 27" fill="none" xmlns="http://www.w3.org/2000/svg">
<circle cx="13.5" cy="13.5" r="13.5" fill="#2F1EDB"/>
<path d="M20 14.8411C20 12.5034 19.9972 10.1857 19.9972 8C18.6821 8.00249 17.3145 8 15.9277 8C15.9277 9.25856 15.9277 10.5271 15.9277 11.8604C15.9277 12.4511 15.9304 13.0841 15.9304 13.6797L19.9862 15.7507C18.9027 15.7507 17.0498 15.7532 15.9304 15.7532C14.687 15.7532 15.3294 15.7532 14.0942 15.7557C13.0713 15.7557 12.0594 15.7557 11.0751 15.7557C11.0723 13.6199 11.0723 11.4243 11.0723 9.34579C11.0723 8.87476 11.0723 8.45607 11.0723 8C9.64687 8.00249 8.27656 8 7 8C7 10.4124 7.00276 14.0336 7.00276 16.6255L11.9215 19.1725H15.9332C15.9938 19.175 16.0545 19.1725 16.1152 19.1725C17.99 19.1725 19.5589 17.9638 19.9531 16.3788C19.9724 16.3065 19.9862 16.2342 20 16.1595C20 16.0822 20 15.828 20 15.7482C20 15.4492 20 15.1451 20 14.8411Z" fill="white"/>
</svg>
