<svg width="32" height="32" viewBox="0 0 32 32" fill="none" xmlns="http://www.w3.org/2000/svg">
<rect x="1" y="1" width="30" height="30" rx="15" fill="#2F1EDB"/>
<path fill-rule="evenodd" clip-rule="evenodd" d="M8.33743 15.8522C12.4187 14.074 15.1402 12.9018 16.5019 12.3354C20.3899 10.7183 21.1978 10.4374 21.7243 10.4281C21.8401 10.426 22.0991 10.4547 22.2668 10.5908C22.4085 10.7058 22.4474 10.861 22.4661 10.97C22.4847 11.0789 22.5079 11.3272 22.4895 11.5211C22.2788 13.7348 21.3671 19.107 20.9033 21.5864C20.7071 22.6355 20.3207 22.9873 19.9466 23.0217C19.1336 23.0965 18.5162 22.4844 17.7288 21.9683C16.4966 21.1605 15.8005 20.6577 14.6044 19.8696C13.2222 18.9587 14.1183 18.4581 14.906 17.6399C15.1121 17.4258 18.6943 14.1676 18.7636 13.872C18.7723 13.835 18.7803 13.6972 18.6985 13.6245C18.6166 13.5517 18.4958 13.5766 18.4086 13.5964C18.285 13.6244 16.3166 14.9255 12.5033 17.4995C11.9446 17.8832 11.4385 18.0701 10.9851 18.0604C10.4852 18.0496 9.52363 17.7777 8.80882 17.5454C7.93207 17.2604 7.23524 17.1097 7.29592 16.6257C7.32752 16.3736 7.6747 16.1157 8.33743 15.8522Z" fill="white"/>
<rect x="1" y="1" width="30" height="30" rx="15" stroke="white" stroke-width="2"/>
</svg>
