<svg width="32" height="32" viewBox="0 0 32 32" fill="none" xmlns="http://www.w3.org/2000/svg">
<circle cx="16" cy="16" r="15" fill="#2F1EDB" stroke="white" stroke-width="2"/>
<path fill-rule="evenodd" clip-rule="evenodd" d="M9.40884 12.5013H7.36631C6.78273 12.5013 6.66602 12.7371 6.66602 12.9925C6.66602 13.4444 7.36631 15.7037 9.88738 18.6899C11.5798 20.7233 13.9608 21.8333 16.12 21.8333C17.4156 21.8333 17.579 21.5878 17.579 21.1654V19.6231C17.579 19.132 17.6957 19.0337 18.1159 19.0337C18.4193 19.0337 18.9329 19.1614 20.1467 20.1437C21.5356 21.3127 21.7574 21.8333 22.5394 21.8333H24.5819C25.1655 21.8333 25.4573 21.5878 25.2822 21.1064C25.1071 20.6153 24.4419 19.9276 23.5665 19.0927C23.0996 18.6113 22.376 18.1104 22.1659 17.855C21.8624 17.521 21.9325 17.3736 22.1659 17.0887C22.1659 17.0887 24.652 14.1418 24.9087 13.13C25.0371 12.7666 24.9087 12.5013 24.2901 12.5013H22.2476C22.0566 12.4917 21.867 12.5344 21.7071 12.6229C21.5473 12.7114 21.4257 12.841 21.3606 12.9925C21.3606 12.9925 20.3101 15.1143 18.8512 16.4994C18.3726 16.9021 18.1509 17.0298 17.8941 17.0298C17.7774 17.0298 17.579 16.9021 17.579 16.5387V13.13C17.579 12.6978 17.4272 12.5013 16.9954 12.5013H13.7857C13.4589 12.5013 13.2605 12.6978 13.2605 12.8943C13.2605 13.3068 14.0075 13.4051 14.0775 14.5642V17.0986C14.0775 17.6585 13.9608 17.7567 13.704 17.7567C13.0037 17.7567 11.323 15.6153 10.3192 13.1693C10.1325 12.6978 9.93406 12.5013 9.40884 12.5013Z" fill="white"/>
</svg>
