<svg width="32" height="32" viewBox="0 0 32 32" fill="none" xmlns="http://www.w3.org/2000/svg">
<rect x="1" y="1" width="30" height="30" rx="15" fill="#2F1EDB"/>
<path d="M7.50781 24.145L8.70824 19.7859C7.96608 18.5064 7.57676 17.0574 7.58081 15.5761C7.58081 10.9345 11.3767 7.16064 16.0365 7.16064C18.2994 7.16064 20.4245 8.0365 22.0183 9.62677C23.6162 11.217 24.4962 13.332 24.4922 15.5802C24.4922 20.2218 20.6962 23.9957 16.0324 23.9957H16.0284C14.613 23.9957 13.222 23.6405 11.9851 22.9705L7.50781 24.145ZM12.2 21.4488L12.4555 21.6022C13.5343 22.2399 14.7712 22.5749 16.0324 22.579H16.0365C19.9095 22.579 23.0646 19.4428 23.0646 15.5842C23.0646 13.7155 22.3347 11.9597 21.0085 10.6358C19.6824 9.31194 17.9142 8.58543 16.0365 8.58543C12.1635 8.58139 9.00834 11.7175 9.00834 15.5761C9.00834 16.896 9.37739 18.1835 10.083 19.2975L10.2493 19.5639L9.53961 22.1431L12.2 21.4488Z" fill="white"/>
<path d="M7.80383 23.8504L8.9637 19.6406C8.24588 18.4096 7.86872 17.009 7.86872 15.5802C7.87278 11.1 11.5349 7.45532 16.0365 7.45532C18.2224 7.45532 20.2704 8.30293 21.8115 9.83669C23.3525 11.3704 24.2001 13.4128 24.2001 15.5842C24.2001 20.0644 20.534 23.7091 16.0365 23.7091H16.0324C14.6657 23.7091 13.3233 23.3661 12.131 22.7203L7.80383 23.8504Z" fill="#2F1EDB"/>
<path d="M7.50781 24.145L8.70824 19.7859C7.96608 18.5064 7.57676 17.0574 7.58081 15.5761C7.58081 10.9345 11.3767 7.16064 16.0365 7.16064C18.2994 7.16064 20.4245 8.0365 22.0183 9.62677C23.6162 11.217 24.4962 13.332 24.4922 15.5802C24.4922 20.2218 20.6962 23.9957 16.0324 23.9957H16.0284C14.613 23.9957 13.222 23.6405 11.9851 22.9705L7.50781 24.145ZM12.2 21.4488L12.4555 21.6022C13.5343 22.2399 14.7712 22.5749 16.0324 22.579H16.0365C19.9095 22.579 23.0646 19.4428 23.0646 15.5842C23.0646 13.7155 22.3347 11.9597 21.0085 10.6358C19.6824 9.31194 17.9142 8.58543 16.0365 8.58543C12.1635 8.58139 9.00834 11.7175 9.00834 15.5761C9.00834 16.896 9.37739 18.1835 10.083 19.2975L10.2493 19.5639L9.53961 22.1431L12.2 21.4488Z" fill="url(#paint0_linear_9314_133)"/>
<path fill-rule="evenodd" clip-rule="evenodd" d="M13.9235 12.0565C13.7654 11.7054 13.5991 11.6973 13.4491 11.6932C13.3274 11.6892 13.1855 11.6892 13.0435 11.6892C12.9016 11.6892 12.6745 11.7417 12.4798 11.9516C12.2851 12.1614 11.7417 12.67 11.7417 13.7073C11.7417 14.7406 12.5001 15.7416 12.6055 15.8828C12.711 16.0241 14.0695 18.2158 16.2149 19.0593C17.9993 19.7616 18.3643 19.6204 18.7496 19.584C19.1348 19.5477 19.9987 19.0755 20.1771 18.5831C20.3515 18.0906 20.3515 17.6709 20.2988 17.5821C20.246 17.4933 20.1041 17.4408 19.8932 17.3359C19.6823 17.2309 18.6441 16.7224 18.4495 16.6497C18.2548 16.5811 18.1129 16.5448 17.975 16.7547C17.833 16.9645 17.4275 17.4368 17.3058 17.578C17.1842 17.7193 17.0584 17.7355 16.8476 17.6305C16.6367 17.5256 15.9553 17.3036 15.1483 16.5851C14.5197 16.0281 14.0939 15.3379 13.9722 15.1281C13.8505 14.9182 13.96 14.8052 14.0655 14.7002C14.1588 14.6074 14.2764 14.454 14.3818 14.3329C14.4873 14.2118 14.5238 14.123 14.5927 13.9818C14.6616 13.8405 14.6292 13.7194 14.5765 13.6145C14.5238 13.5136 14.1101 12.4722 13.9235 12.0565Z" fill="white"/>
<rect x="1" y="1" width="30" height="30" rx="15" stroke="white" stroke-width="2"/>
<defs>
<linearGradient id="paint0_linear_9314_133" x1="16.0016" y1="24.1434" x2="16.0016" y2="7.16064" gradientUnits="userSpaceOnUse">
<stop stop-color="#F9F9F9"/>
<stop offset="1" stop-color="white"/>
</linearGradient>
</defs>
</svg>
